<svg xmlns="http://www.w3.org/2000/svg" viewBox="0 0 760 500" font-family="system-ui,Segoe UI,Roboto,sans-serif">
<rect width="760" height="500" fill="#ffffff"/>
<text x="380.0" y="26" text-anchor="middle" font-size="16" font-weight="600" fill="#111827">Formal verification — 13/13 lemmas verified</text>
<text x="380.0" y="46" text-anchor="middle" font-size="12" fill="#6B7280">Tamarin Prover 1.12.0 · Maude 3.5.1 · formal/results/verify-2026-10-02.txt</text>
<text x="30" y="92" font-size="13" font-weight="600" fill="#111827">Handshake model — formal/pqvpn_v3.spthy (7 lemmas)</text>
<rect x="24" y="92" width="712" height="26" fill="#F9FAFB"/>
<text x="40" y="108" font-size="12" fill="#374151">protocol_completes</text>
<text x="470" y="108" font-size="11" fill="#6B7280">exists-trace</text>
<text x="580" y="108" font-size="11" fill="#6B7280">21 steps</text>
<rect x="650" y="95" width="74" height="18" rx="9" fill="#DCFCE7"/>
<text x="687" y="108" text-anchor="middle" font-size="11" font-weight="600" fill="#166534">verified</text>
<text x="40" y="134" font-size="12" fill="#374151">session_key_secrecy</text>
<text x="470" y="134" font-size="11" fill="#6B7280">all-trace</text>
<text x="580" y="134" font-size="11" fill="#6B7280">84 steps</text>
<rect x="650" y="121" width="74" height="18" rx="9" fill="#DCFCE7"/>
<text x="687" y="134" text-anchor="middle" font-size="11" font-weight="600" fill="#166534">verified</text>
<rect x="24" y="144" width="712" height="26" fill="#F9FAFB"/>
<text x="40" y="160" font-size="12" fill="#374151">forward_secrecy</text>
<text x="470" y="160" font-size="11" fill="#6B7280">all-trace</text>
<text x="580" y="160" font-size="11" fill="#6B7280">186 steps</text>
<rect x="650" y="147" width="74" height="18" rx="9" fill="#DCFCE7"/>
<text x="687" y="160" text-anchor="middle" font-size="11" font-weight="600" fill="#166534">verified</text>
<text x="40" y="186" font-size="12" fill="#374151">server_auth</text>
<text x="470" y="186" font-size="11" fill="#6B7280">all-trace</text>
<text x="580" y="186" font-size="11" fill="#6B7280">10 steps</text>
<rect x="650" y="173" width="74" height="18" rx="9" fill="#DCFCE7"/>
<text x="687" y="186" text-anchor="middle" font-size="11" font-weight="600" fill="#166534">verified</text>
<rect x="24" y="196" width="712" height="26" fill="#F9FAFB"/>
<text x="40" y="212" font-size="12" fill="#374151">client_auth</text>
<text x="470" y="212" font-size="11" fill="#6B7280">all-trace</text>
<text x="580" y="212" font-size="11" fill="#6B7280">43 steps</text>
<rect x="650" y="199" width="74" height="18" rx="9" fill="#DCFCE7"/>
<text x="687" y="212" text-anchor="middle" font-size="11" font-weight="600" fill="#166534">verified</text>
<text x="40" y="238" font-size="12" fill="#374151">kci_resistance_client</text>
<text x="470" y="238" font-size="11" fill="#6B7280">all-trace</text>
<text x="580" y="238" font-size="11" fill="#6B7280">10 steps</text>
<rect x="650" y="225" width="74" height="18" rx="9" fill="#DCFCE7"/>
<text x="687" y="238" text-anchor="middle" font-size="11" font-weight="600" fill="#166534">verified</text>
<rect x="24" y="248" width="712" height="26" fill="#F9FAFB"/>
<text x="40" y="264" font-size="12" fill="#374151">kci_resistance_server</text>
<text x="470" y="264" font-size="11" fill="#6B7280">all-trace</text>
<text x="580" y="264" font-size="11" fill="#6B7280">43 steps</text>
<rect x="650" y="251" width="74" height="18" rx="9" fill="#DCFCE7"/>
<text x="687" y="264" text-anchor="middle" font-size="11" font-weight="600" fill="#166534">verified</text>
<text x="30" y="312" font-size="13" font-weight="600" fill="#111827">Post-compromise security — formal/pqvpn_v3_pcs.spthy (6 lemmas)</text>
<rect x="24" y="312" width="712" height="26" fill="#F9FAFB"/>
<text x="40" y="328" font-size="12" fill="#374151">rehandshake_completes</text>
<text x="470" y="328" font-size="11" fill="#6B7280">exists-trace</text>
<text x="580" y="328" font-size="11" fill="#6B7280">9 steps</text>
<rect x="650" y="315" width="74" height="18" rx="9" fill="#DCFCE7"/>
<text x="687" y="328" text-anchor="middle" font-size="11" font-weight="600" fill="#166534">verified</text>
<text x="40" y="354" font-size="12" fill="#374151">passive_rehandshake_completes</text>
<text x="470" y="354" font-size="11" fill="#6B7280">exists-trace</text>
<text x="580" y="354" font-size="11" fill="#6B7280">4 steps</text>
<rect x="650" y="341" width="74" height="18" rx="9" fill="#DCFCE7"/>
<text x="687" y="354" text-anchor="middle" font-size="11" font-weight="600" fill="#166534">verified</text>
<rect x="24" y="364" width="712" height="26" fill="#F9FAFB"/>
<text x="40" y="380" font-size="12" fill="#374151">rh_client_agrees</text>
<text x="470" y="380" font-size="11" fill="#6B7280">all-trace</text>
<text x="580" y="380" font-size="11" fill="#6B7280">22 steps</text>
<rect x="650" y="367" width="74" height="18" rx="9" fill="#DCFCE7"/>
<text x="687" y="380" text-anchor="middle" font-size="11" font-weight="600" fill="#166534">verified</text>
<text x="40" y="406" font-size="12" fill="#374151">pcs_control_keys_only</text>
<text x="470" y="406" font-size="11" fill="#6B7280">all-trace</text>
<text x="580" y="406" font-size="11" fill="#6B7280">80 steps</text>
<rect x="650" y="393" width="74" height="18" rx="9" fill="#DCFCE7"/>
<text x="687" y="406" text-anchor="middle" font-size="11" font-weight="600" fill="#166534">verified</text>
<rect x="24" y="416" width="712" height="26" fill="#F9FAFB"/>
<text x="40" y="432" font-size="12" fill="#374151">pcs_passive_after_epoch_compromise</text>
<text x="470" y="432" font-size="11" fill="#6B7280">all-trace</text>
<text x="580" y="432" font-size="11" fill="#6B7280">48 steps</text>
<rect x="650" y="419" width="74" height="18" rx="9" fill="#DCFCE7"/>
<text x="687" y="432" text-anchor="middle" font-size="11" font-weight="600" fill="#166534">verified</text>
<text x="40" y="458" font-size="12" fill="#374151">attack_active_after_epoch_compromise</text>
<text x="470" y="458" font-size="11" fill="#6B7280">exists-trace</text>
<text x="580" y="458" font-size="11" fill="#6B7280">15 steps</text>
<rect x="650" y="445" width="74" height="18" rx="9" fill="#DCFCE7"/>
<text x="687" y="458" text-anchor="middle" font-size="11" font-weight="600" fill="#166534">verified</text>
<text x="30" y="484" font-size="10" fill="#9CA3AF">exists-trace "verified" on attack_active_after_epoch_compromise confirms the documented active-adversary limitation after full epoch compromise.</text>
</svg>